# This file uses centimeters as units for non-parametric coordinates.

mtllib carril.mtl
g default
v -59.172796 0.013338 81.618393
v 163.115073 0.081170 82.179105
v 163.115073 0.013338 82.179105
v -59.172796 0.081170 81.618393
v 163.113960 0.013338 82.620307
v -59.173909 0.013338 82.059595
v -59.173909 0.081170 82.059595
v 163.113960 0.081170 82.620307
v -59.173830 0.081170 82.028081
v 163.114039 0.081170 82.588793
v -59.173194 0.142464 81.775965
v 163.114675 0.454248 82.336677
v 163.114675 0.142464 82.336677
v -59.173194 0.454248 81.775965
v -59.172950 0.454248 81.679453
v 163.114919 0.454248 82.240165
v -59.172876 0.081170 81.649900
v 163.114993 0.081170 82.210612
v -59.173512 0.142464 81.902023
v 163.114357 0.142464 82.462735
v -59.173745 0.566954 81.994597
v -59.173512 0.454248 81.902023
v -59.173745 0.454248 81.994597
v -59.172950 0.566954 81.679453
v -59.185113 0.454248 86.501167
v 163.102756 0.566954 87.061879
v 163.102756 0.454248 87.061879
v -59.185113 0.566954 86.501167
v -59.185908 0.566954 86.816311
v 163.101961 0.566954 87.377023
v 163.101961 0.454248 87.377023
v -59.185908 0.454248 86.816311
v -59.185674 0.454248 86.723737
v 163.102195 0.142464 87.284449
v 163.102195 0.454248 87.284449
v -59.185674 0.142464 86.723737
v 163.102513 0.454248 87.158392
v 163.102513 0.142464 87.158392
v 163.101877 0.081170 87.410507
v 163.102831 0.081170 87.032334
v 163.102910 0.081170 87.000819
v 163.101797 0.013338 87.442021
v 163.102910 0.013338 87.000819
v 163.101797 0.081170 87.442021
v -59.184959 0.013338 86.440107
v -59.184959 0.081170 86.440107
v -59.186072 0.013338 86.881309
v -59.186072 0.081170 86.881309
v -59.185992 0.081170 86.849795
v -59.185356 0.142464 86.597680
v -59.185356 0.454248 86.597680
v -59.185038 0.081170 86.471622
v 163.114919 0.566954 82.240165
v 163.114124 0.566954 82.555309
v 163.114124 0.454248 82.555309
v 163.114357 0.454248 82.462735
vt 0.000000 0.000000
vt 0.000000 0.000000
vt 0.000000 0.000000
vt 0.000000 0.000000
vt 0.000000 0.000000
vt 0.000000 0.000000
vt 0.000000 0.000000
vt 0.000000 0.000000
vt 0.000000 0.000000
vt 0.000000 0.000000
vt 0.000000 0.000000
vt 0.000000 0.000000
vt 0.000000 0.000000
vt 0.000000 0.000000
vt 0.000000 0.000000
vt 0.000000 0.000000
vt 0.000000 0.000000
vt 0.000000 0.000000
vt 0.000000 0.000000
vt 0.000000 0.000000
vt 0.000000 0.000000
vt 0.000000 0.000000
vt 0.000000 0.000000
vt 0.000000 0.000000
vt 0.000000 0.000000
vt 0.000000 0.000000
vt 0.000000 0.000000
vt 0.000000 0.000000
vt 0.000000 0.000000
vt 0.000000 0.000000
vt 0.000000 0.000000
vt 0.000000 0.000000
vt 0.000000 0.000000
vt 0.000000 0.000000
vt 0.000000 0.000000
vt 0.000000 0.000000
vt 0.000000 0.000000
vt 0.000000 0.000000
vt 0.000000 0.000000
vt 0.000000 0.000000
vt 0.000000 0.000000
vt 0.000000 0.000000
vt 0.000000 0.000000
vt 0.000000 0.000000
vt 0.000000 0.000000
vt 0.000000 0.000000
vt 0.000000 0.000000
vt 0.000000 0.000000
vt 0.000000 0.000000
vt 0.000000 0.000000
vt 0.000000 0.000000
vt 0.000000 0.000000
vt 0.000000 0.000000
vt 0.000000 0.000000
vt 0.000000 0.000000
vt 0.000000 0.000000
vt 0.000000 0.000000
vt 0.000000 0.000000
vt 0.000000 0.000000
vt 0.000000 0.000000
vt 0.000000 0.000000
vt 0.000000 0.000000
vt 0.000000 0.000000
vt 0.000000 0.000000
vt 0.000000 0.000000
vt 0.000000 0.000000
vt 0.000000 0.000000
vt 0.000000 0.000000
vt 0.000000 0.000000
vt 0.000000 0.000000
vt 0.000000 0.000000
vt 0.000000 0.000000
vt 0.000000 0.000000
vt 0.000000 0.000000
vt 0.000000 0.000000
vt 0.000000 0.000000
vt 0.000000 0.000000
vt 0.000000 0.000000
vt 0.000000 0.000000
vt 0.000000 0.000000
vt 0.000000 0.000000
vt 0.000000 0.000000
vt 0.000000 0.000000
vt 0.000000 0.000000
vt 0.000000 0.000000
vt 0.000000 0.000000
vt 0.000000 0.000000
vt 0.000000 0.000000
vt 0.000000 0.000000
vt 0.000000 0.000000
vt 0.000000 0.000000
vt 0.000000 0.000000
vt 0.000000 0.000000
vt 0.000000 0.000000
vt 0.000000 0.000000
vt 0.000000 0.000000
vt 0.000000 0.000000
vt 0.000000 0.000000
vt 0.000000 0.000000
vt 0.000000 0.000000
vt 0.000000 0.000000
vt 0.000000 0.000000
vt 0.000000 0.000000
vt 0.000000 0.000000
vt 0.000000 0.000000
vt 0.000000 0.000000
vt 0.000000 0.000000
vt 0.000000 0.000000
vt 0.000000 0.000000
vt 0.000000 0.000000
vt 0.000000 0.000000
vt 0.000000 0.000000
vt 0.000000 0.000000
vt 0.000000 0.000000
vt 0.000000 0.000000
vt 0.000000 0.000000
vt 0.000000 0.000000
vt 0.000000 0.000000
vt 0.000000 0.000000
vt 0.000000 0.000000
vt 0.000000 0.000000
vt 0.000000 0.000000
vt 0.000000 0.000000
vt 0.000000 0.000000
vt 0.000000 0.000000
vt 0.000000 0.000000
vt 0.000000 0.000000
vt 0.000000 0.000000
vt 0.000000 0.000000
vt 0.000000 0.000000
vt 0.000000 0.000000
vt 0.000000 0.000000
vt 0.000000 0.000000
vt 0.000000 0.000000
vt 0.000000 0.000000
vt 0.000000 0.000000
vt 0.000000 0.000000
vt 0.000000 0.000000
vt 0.000000 0.000000
vt 0.000000 0.000000
vt 0.000000 0.000000
vt 0.000000 0.000000
vt 0.000000 0.000000
vt 0.000000 0.000000
vt 0.000000 0.000000
vt 0.000000 0.000000
vt 0.000000 0.000000
vt 0.000000 0.000000
vt 0.000000 0.000000
vt 0.000000 0.000000
vt 0.000000 0.000000
vt 0.000000 0.000000
vt 0.000000 0.000000
vt 0.000000 0.000000
vt 0.000000 0.000000
vt 0.000000 0.000000
vt 0.000000 0.000000
vt 0.000000 0.000000
vt 0.000000 0.000000
vt 0.000000 0.000000
vt 0.000000 0.000000
vt 0.000000 0.000000
vt 0.000000 0.000000
vt 0.000000 0.000000
vt 0.000000 0.000000
vt 0.000000 0.000000
vt 0.000000 0.000000
vt 0.000000 0.000000
vt 0.000000 0.000000
vt 0.000000 0.000000
vt 0.000000 0.000000
vt 0.000000 0.000000
vt 0.000000 0.000000
vt 0.000000 0.000000
vt 0.000000 0.000000
vt 0.000000 0.000000
vt 0.000000 0.000000
vt 0.000000 0.000000
vt 0.000000 0.000000
vt 0.000000 0.000000
vt 0.000000 0.000000
vt 0.000000 0.000000
vt 0.000000 0.000000
vt 0.000000 0.000000
vt 0.000000 0.000000
vt 0.000000 0.000000
vt 0.000000 0.000000
vt 0.000000 0.000000
vt 0.000000 0.000000
vt 0.000000 0.000000
vt 0.000000 0.000000
vt 0.000000 0.000000
vt 0.000000 0.000000
vt 0.000000 0.000000
vt 0.000000 0.000000
vt 0.000000 0.000000
vt 0.000000 0.000000
vt 0.000000 0.000000
vt 0.000000 0.000000
vt 0.000000 0.000000
vt 0.000000 0.000000
vt 0.000000 0.000000
vt 0.000000 0.000000
vt 0.000000 0.000000
vt 0.000000 0.000000
vt 0.000000 0.000000
vt 0.000000 0.000000
vt 0.000000 0.000000
vt 0.000000 0.000000
vt 0.000000 0.000000
vt 0.000000 0.000000
vt 0.000000 0.000000
vt 0.000000 0.000000
vt 0.000000 0.000000
vt 0.000000 0.000000
vt 0.000000 0.000000
vt 0.000000 0.000000
vt 0.000000 0.000000
vt 0.000000 0.000000
vt 0.000000 0.000000
vt 0.000000 0.000000
vt 0.000000 0.000000
vt 0.000000 0.000000
vt 0.000000 0.000000
vt 0.000000 0.000000
vt 0.000000 0.000000
vt 0.000000 0.000000
vt 0.000000 0.000000
vt 0.000000 0.000000
vt 0.000000 0.000000
vt 0.000000 0.000000
vt 0.000000 0.000000
vt 0.000000 0.000000
vt 0.000000 0.000000
vt 0.000000 0.000000
vt 0.000000 0.000000
vt 0.000000 0.000000
vt 0.000000 0.000000
vt 0.000000 0.000000
vt 0.000000 0.000000
vt 0.000000 0.000000
vt 0.000000 0.000000
vt 0.000000 0.000000
vt 0.000000 0.000000
vt 0.000000 0.000000
vt 0.000000 0.000000
vt 0.000000 0.000000
vt 0.000000 0.000000
vt 0.000000 0.000000
vt 0.000000 0.000000
vt 0.000000 0.000000
vt 0.000000 0.000000
vt 0.000000 0.000000
vt 0.000000 0.000000
vt 0.000000 0.000000
vt 0.000000 0.000000
vt 0.000000 0.000000
vt 0.000000 0.000000
vt 0.000000 0.000000
vt 0.000000 0.000000
vt 0.000000 0.000000
vt 0.000000 0.000000
vt 0.000000 0.000000
vt 0.000000 0.000000
vt 0.000000 0.000000
vt 0.000000 0.000000
vt 0.000000 0.000000
vt 0.000000 0.000000
vt 0.000000 0.000000
vt 0.000000 0.000000
vt 0.000000 0.000000
vt 0.000000 0.000000
vt 0.000000 0.000000
vt 0.000000 0.000000
vt 0.000000 0.000000
vt 0.000000 0.000000
vt 0.000000 0.000000
vt 0.000000 0.000000
vt 0.000000 0.000000
vt 0.000000 0.000000
vt 0.000000 0.000000
vt 0.000000 0.000000
vt 0.000000 0.000000
vt 0.000000 0.000000
vt 0.000000 0.000000
vt 0.000000 0.000000
vt 0.000000 0.000000
vt 0.000000 0.000000
vt 0.000000 0.000000
vt 0.000000 0.000000
vt 0.000000 0.000000
vt 0.000000 0.000000
vt 0.000000 0.000000
vt 0.000000 0.000000
vt 0.000000 0.000000
vt 0.000000 0.000000
vt 0.000000 0.000000
vt 0.000000 0.000000
vt 0.000000 0.000000
vt 0.000000 0.000000
vt 0.000000 0.000000
vt 0.000000 0.000000
vt 0.000000 0.000000
vt 0.000000 0.000000
vt 0.000000 0.000000
vt 0.000000 0.000000
vt 0.000000 0.000000
vt 0.000000 0.000000
vn 0.002522 0.000000 -0.999997
vn 0.002522 0.000000 -0.999997
vn 0.002522 0.000000 -0.999997
vn 0.002522 0.000000 -0.999997
vn 0.002522 0.000000 -0.999997
vn 0.002522 0.000000 -0.999997
vn 0.000000 -1.000000 0.000000
vn 0.000000 -1.000000 0.000000
vn 0.000000 -1.000000 0.000000
vn 0.000000 -1.000000 0.000000
vn 0.000000 -1.000000 0.000000
vn 0.000000 -1.000000 0.000000
vn -0.002522 0.000000 0.999997
vn -0.002522 0.000000 0.999997
vn -0.002522 0.000000 0.999997
vn -0.002522 0.000000 0.999997
vn -0.002522 0.000000 0.999997
vn -0.002522 0.000000 0.999997
vn 0.000000 1.000000 0.000000
vn 0.000000 1.000000 0.000000
vn 0.000000 1.000000 0.000000
vn 0.000000 1.000000 0.000000
vn 0.000000 1.000000 0.000000
vn 0.000000 1.000000 0.000000
vn 0.002522 0.000000 -0.999997
vn 0.002522 0.000000 -0.999997
vn 0.002522 0.000000 -0.999997
vn 0.002522 0.000000 -0.999997
vn 0.002522 0.000000 -0.999997
vn 0.002522 0.000000 -0.999997
vn 0.000000 -1.000000 0.000000
vn 0.000000 -1.000000 0.000000
vn 0.000000 -1.000000 0.000000
vn 0.000000 -1.000000 0.000000
vn 0.000000 -1.000000 0.000000
vn 0.000000 -1.000000 0.000000
vn 0.001103 0.899336 -0.437256
vn 0.001103 0.899336 -0.437256
vn 0.001103 0.899336 -0.437256
vn 0.001103 0.899336 -0.437256
vn 0.001103 0.899336 -0.437256
vn 0.001103 0.899336 -0.437256
vn -0.001103 0.899336 0.437256
vn -0.001103 0.899336 0.437256
vn -0.001103 0.899336 0.437256
vn -0.001103 0.899336 0.437256
vn -0.001103 0.899336 0.437256
vn -0.001103 0.899336 0.437256
vn 0.000000 1.000000 0.000000
vn 0.000000 1.000000 0.000000
vn 0.000000 1.000000 0.000000
vn 0.000000 1.000000 0.000000
vn 0.000000 1.000000 0.000000
vn 0.000000 1.000000 0.000000
vn -0.999997 0.000000 -0.002522
vn -0.999997 0.000000 -0.002522
vn -0.999997 0.000000 -0.002522
vn -0.999997 0.000000 -0.002522
vn -0.999997 0.000000 -0.002522
vn -0.999997 0.000000 -0.002522
vn -0.999997 0.000000 -0.002522
vn -0.999997 0.000000 -0.002522
vn -0.999997 0.000000 -0.002522
vn -0.999997 0.000000 -0.002522
vn -0.999997 0.000000 -0.002522
vn -0.999997 0.000000 -0.002522
vn -0.999997 0.000000 -0.002522
vn -0.999997 0.000000 -0.002522
vn -0.999997 0.000000 -0.002522
vn -0.999997 0.000000 -0.002522
vn -0.999997 0.000000 -0.002522
vn -0.999997 0.000000 -0.002522
vn -0.999997 0.000000 -0.002522
vn -0.999997 0.000000 -0.002522
vn -0.999997 0.000000 -0.002522
vn -0.999997 0.000000 -0.002522
vn -0.999997 0.000000 -0.002522
vn -0.999997 0.000000 -0.002522
vn -0.999997 0.000000 -0.002522
vn -0.999997 0.000000 -0.002522
vn -0.999997 0.000000 -0.002522
vn -0.999997 0.000000 -0.002522
vn -0.999997 0.000000 -0.002522
vn -0.999997 0.000000 -0.002522
vn -0.999997 0.000000 -0.002522
vn -0.999997 0.000000 -0.002522
vn -0.999997 0.000000 -0.002522
vn -0.999997 0.000000 -0.002522
vn -0.999997 0.000000 -0.002522
vn -0.999997 0.000000 -0.002522
vn 0.002522 0.000000 -0.999997
vn 0.002522 0.000000 -0.999997
vn 0.002522 0.000000 -0.999997
vn 0.002522 0.000000 -0.999997
vn 0.002522 0.000000 -0.999997
vn 0.002522 0.000000 -0.999997
vn 0.000000 1.000000 0.000000
vn 0.000000 1.000000 0.000000
vn 0.000000 1.000000 0.000000
vn 0.000000 1.000000 0.000000
vn 0.000000 1.000000 0.000000
vn 0.000000 1.000000 0.000000
vn -0.002522 0.000000 0.999997
vn -0.002522 0.000000 0.999997
vn -0.002522 0.000000 0.999997
vn -0.002522 0.000000 0.999997
vn -0.002522 0.000000 0.999997
vn -0.002522 0.000000 0.999997
vn -0.002522 0.000000 0.999997
vn -0.002522 0.000000 0.999997
vn -0.002522 0.000000 0.999997
vn -0.002522 0.000000 0.999997
vn -0.002522 0.000000 0.999997
vn -0.002522 0.000000 0.999997
vn 0.000000 -1.000000 0.000000
vn 0.000000 -1.000000 0.000000
vn 0.000000 -1.000000 0.000000
vn 0.000000 -1.000000 0.000000
vn 0.000000 -1.000000 0.000000
vn 0.000000 -1.000000 0.000000
vn 0.999997 0.000000 0.002522
vn 0.999997 0.000000 0.002522
vn 0.999997 0.000000 0.002522
vn 0.999997 0.000000 0.002522
vn 0.999997 0.000000 0.002522
vn 0.999997 0.000000 0.002522
vn 0.999997 0.000000 0.002522
vn 0.999997 0.000000 0.002522
vn 0.999997 0.000000 0.002522
vn 0.999997 0.000000 0.002522
vn 0.999997 0.000000 0.002522
vn 0.999997 0.000000 0.002522
vn 0.999997 0.000000 0.002522
vn 0.999997 0.000000 0.002522
vn 0.999997 0.000000 0.002522
vn 0.999997 0.000000 0.002522
vn 0.999997 0.000000 0.002522
vn 0.999997 0.000000 0.002522
vn 0.999997 0.000000 0.002522
vn 0.999997 0.000000 0.002522
vn 0.999997 0.000000 0.002522
vn 0.999997 0.000000 0.002522
vn 0.999997 0.000000 0.002522
vn 0.999997 0.000000 0.002522
vn 0.999997 0.000000 0.002522
vn 0.999997 0.000000 0.002522
vn 0.999997 0.000000 0.002522
vn 0.999997 0.000000 0.002522
vn 0.999997 0.000000 0.002522
vn 0.999997 0.000000 0.002522
vn 0.999997 0.000000 0.002522
vn 0.999997 0.000000 0.002522
vn 0.999997 0.000000 0.002522
vn 0.999997 0.000000 0.002522
vn 0.999997 0.000000 0.002522
vn 0.999997 0.000000 0.002522
vn 0.002522 0.000000 -0.999997
vn 0.002522 0.000000 -0.999997
vn 0.002522 0.000000 -0.999997
vn 0.002522 0.000000 -0.999997
vn 0.002522 0.000000 -0.999997
vn 0.002522 0.000000 -0.999997
vn 0.000000 -1.000000 0.000000
vn 0.000000 -1.000000 0.000000
vn 0.000000 -1.000000 0.000000
vn 0.000000 -1.000000 0.000000
vn 0.000000 -1.000000 0.000000
vn 0.000000 -1.000000 0.000000
vn -0.002522 0.000000 0.999997
vn -0.002522 0.000000 0.999997
vn -0.002522 0.000000 0.999997
vn -0.002522 0.000000 0.999997
vn -0.002522 0.000000 0.999997
vn -0.002522 0.000000 0.999997
vn 0.000000 1.000000 0.000000
vn 0.000000 1.000000 0.000000
vn 0.000000 1.000000 0.000000
vn 0.000000 1.000000 0.000000
vn 0.000000 1.000000 0.000000
vn 0.000000 1.000000 0.000000
vn 0.002522 0.000000 -0.999997
vn 0.002522 0.000000 -0.999997
vn 0.002522 0.000000 -0.999997
vn 0.002522 0.000000 -0.999997
vn 0.002522 0.000000 -0.999997
vn 0.002522 0.000000 -0.999997
vn 0.000000 -1.000000 0.000000
vn 0.000000 -1.000000 0.000000
vn 0.000000 -1.000000 0.000000
vn 0.000000 -1.000000 0.000000
vn 0.000000 -1.000000 0.000000
vn 0.000000 -1.000000 0.000000
vn 0.001103 0.899336 -0.437256
vn 0.001103 0.899336 -0.437256
vn 0.001103 0.899336 -0.437256
vn 0.001103 0.899336 -0.437256
vn 0.001103 0.899336 -0.437256
vn 0.001103 0.899336 -0.437256
vn -0.001103 0.899336 0.437256
vn -0.001103 0.899336 0.437256
vn -0.001103 0.899336 0.437256
vn -0.001103 0.899336 0.437256
vn -0.001103 0.899336 0.437256
vn -0.001103 0.899336 0.437256
vn 0.000000 1.000000 0.000000
vn 0.000000 1.000000 0.000000
vn 0.000000 1.000000 0.000000
vn 0.000000 1.000000 0.000000
vn 0.000000 1.000000 0.000000
vn 0.000000 1.000000 0.000000
vn -0.999997 0.000000 -0.002522
vn -0.999997 0.000000 -0.002522
vn -0.999997 0.000000 -0.002522
vn -0.999997 0.000000 -0.002522
vn -0.999997 0.000000 -0.002522
vn -0.999997 0.000000 -0.002522
vn -0.999997 0.000000 -0.002522
vn -0.999997 0.000000 -0.002522
vn -0.999997 0.000000 -0.002522
vn -0.999997 0.000000 -0.002522
vn -0.999997 0.000000 -0.002522
vn -0.999997 0.000000 -0.002522
vn -0.999997 0.000000 -0.002522
vn -0.999997 0.000000 -0.002522
vn -0.999997 0.000000 -0.002522
vn -0.999997 0.000000 -0.002522
vn -0.999997 0.000000 -0.002522
vn -0.999997 0.000000 -0.002522
vn -0.999997 0.000000 -0.002522
vn -0.999997 0.000000 -0.002522
vn -0.999997 0.000000 -0.002522
vn -0.999997 0.000000 -0.002522
vn -0.999997 0.000000 -0.002522
vn -0.999997 0.000000 -0.002522
vn -0.999997 0.000000 -0.002522
vn -0.999997 0.000000 -0.002522
vn -0.999997 0.000000 -0.002522
vn -0.999997 0.000000 -0.002522
vn -0.999997 0.000000 -0.002522
vn -0.999997 0.000000 -0.002522
vn -0.999997 0.000000 -0.002522
vn -0.999997 0.000000 -0.002522
vn -0.999997 0.000000 -0.002522
vn -0.999997 0.000000 -0.002522
vn -0.999997 0.000000 -0.002522
vn -0.999997 0.000000 -0.002522
vn 0.002522 0.000000 -0.999997
vn 0.002522 0.000000 -0.999997
vn 0.002522 0.000000 -0.999997
vn 0.002522 0.000000 -0.999997
vn 0.002522 0.000000 -0.999997
vn 0.002522 0.000000 -0.999997
vn 0.000000 1.000000 0.000000
vn 0.000000 1.000000 0.000000
vn 0.000000 1.000000 0.000000
vn 0.000000 1.000000 0.000000
vn 0.000000 1.000000 0.000000
vn 0.000000 1.000000 0.000000
vn -0.002522 0.000000 0.999997
vn -0.002522 0.000000 0.999997
vn -0.002522 0.000000 0.999997
vn -0.002522 0.000000 0.999997
vn -0.002522 0.000000 0.999997
vn -0.002522 0.000000 0.999997
vn -0.002522 0.000000 0.999997
vn -0.002522 0.000000 0.999997
vn -0.002522 0.000000 0.999997
vn -0.002522 0.000000 0.999997
vn -0.002522 0.000000 0.999997
vn -0.002522 0.000000 0.999997
vn 0.000000 -1.000000 0.000000
vn 0.000000 -1.000000 0.000000
vn 0.000000 -1.000000 0.000000
vn 0.000000 -1.000000 0.000000
vn 0.000000 -1.000000 0.000000
vn 0.000000 -1.000000 0.000000
vn 0.999997 0.000000 0.002522
vn 0.999997 0.000000 0.002522
vn 0.999997 0.000000 0.002522
vn 0.999997 0.000000 0.002522
vn 0.999997 0.000000 0.002522
vn 0.999997 0.000000 0.002522
vn 0.999997 0.000000 0.002522
vn 0.999997 0.000000 0.002522
vn 0.999997 0.000000 0.002522
vn 0.999997 0.000000 0.002522
vn 0.999997 0.000000 0.002522
vn 0.999997 0.000000 0.002522
vn 0.999997 0.000000 0.002522
vn 0.999997 0.000000 0.002522
vn 0.999997 0.000000 0.002522
vn 0.999997 0.000000 0.002522
vn 0.999997 0.000000 0.002522
vn 0.999997 0.000000 0.002522
vn 0.999997 0.000000 0.002522
vn 0.999997 0.000000 0.002522
vn 0.999997 0.000000 0.002522
vn 0.999997 0.000000 0.002522
vn 0.999997 0.000000 0.002522
vn 0.999997 0.000000 0.002522
vn 0.999997 0.000000 0.002522
vn 0.999997 0.000000 0.002522
vn 0.999997 0.000000 0.002522
vn 0.999997 0.000000 0.002522
vn 0.999997 0.000000 0.002522
vn 0.999997 0.000000 0.002522
vn 0.999997 0.000000 0.002522
vn 0.999997 0.000000 0.002522
vn 0.999997 0.000000 0.002522
vn 0.999997 0.000000 0.002522
vn 0.999997 0.000000 0.002522
vn 0.999997 0.000000 0.002522
s off
g carril:carril
usemtl carril:initialShadingGroup
f 1/1/1 2/2/2 3/3/3
f 2/4/4 1/1/5 4/5/6
f 1/1/7 5/6/8 6/7/9
f 5/8/10 1/1/11 3/9/12
f 7/10/13 5/11/14 8/12/15
f 5/13/16 7/14/17 6/15/18
f 8/16/19 9/17/20 7/18/21
f 9/19/22 8/20/23 10/21/24
f 11/22/25 12/23/26 13/24/27
f 12/25/28 11/26/29 14/27/30
f 15/28/31 12/29/32 14/30/33
f 12/31/34 15/32/35 16/33/36
f 13/34/37 17/35/38 11/36/39
f 17/37/40 13/38/41 18/39/42
f 10/40/43 19/41/44 9/42/45
f 19/43/46 10/44/47 20/45/48
f 18/46/49 4/47/50 17/48/51
f 4/49/52 18/50/53 2/51/54
f 21/52/55 22/53/56 23/54/57
f 22/55/58 21/56/59 14/57/60
f 14/58/61 21/59/62 15/60/63
f 15/61/64 21/62/65 24/63/66
f 6/64/67 4/65/68 1/1/69
f 4/66/70 6/67/71 7/68/72
f 4/69/73 7/70/74 17/71/75
f 17/72/76 7/73/77 9/74/78
f 17/75/79 9/76/80 19/77/81
f 17/78/82 19/79/83 11/80/84
f 11/81/85 19/82/86 22/83/87
f 11/84/88 22/85/89 14/86/90
f 25/87/91 26/88/92 27/89/93
f 26/90/94 25/91/95 28/92/96
f 26/93/97 29/94/98 30/95/99
f 29/96/100 26/97/101 28/98/102
f 29/99/103 31/100/104 30/101/105
f 31/102/106 29/103/107 32/104/108
f 33/105/109 34/106/110 35/107/111
f 34/108/112 33/109/113 36/110/114
f 33/111/115 31/112/116 32/113/117
f 31/114/118 33/115/119 35/116/120
f 26/117/121 37/118/122 27/119/123
f 37/120/124 26/121/125 35/122/126
f 35/123/127 26/124/128 31/125/129
f 31/126/130 26/127/131 30/128/132
f 38/129/133 39/130/134 40/131/135
f 39/132/136 38/133/137 34/134/138
f 34/135/139 38/136/140 37/137/141
f 34/138/142 37/139/143 35/140/144
f 41/141/145 42/142/146 43/143/147
f 42/144/148 41/145/149 44/146/150
f 44/147/151 41/148/152 40/149/153
f 44/150/154 40/151/155 39/152/156
f 45/153/157 41/154/158 43/155/159
f 41/156/160 45/157/161 46/158/162
f 47/159/163 43/160/164 42/161/165
f 43/162/166 47/163/167 45/164/168
f 48/165/169 42/166/170 44/167/171
f 42/168/172 48/169/173 47/170/174
f 39/171/175 48/172/176 44/173/177
f 48/174/178 39/175/179 49/176/180
f 50/177/181 37/178/182 38/179/183
f 37/180/184 50/181/185 51/182/186
f 25/183/187 37/184/188 51/185/189
f 37/186/190 25/187/191 27/188/192
f 40/189/193 50/190/194 38/191/195
f 50/192/196 40/193/197 52/194/198
f 34/195/199 49/196/200 39/197/201
f 49/198/202 34/199/203 36/200/204
f 41/201/205 52/202/206 40/203/207
f 52/204/208 41/205/209 46/206/210
f 29/207/211 33/208/212 32/209/213
f 33/210/214 29/211/215 51/212/216
f 51/213/217 29/214/218 25/215/219
f 25/216/220 29/217/221 28/218/222
f 47/219/223 46/220/224 45/221/225
f 46/222/226 47/223/227 48/224/228
f 46/225/229 48/226/230 52/227/231
f 52/228/232 48/229/233 49/230/234
f 52/231/235 49/232/236 36/233/237
f 52/234/238 36/235/239 50/236/240
f 50/237/241 36/238/242 33/239/243
f 50/240/244 33/241/245 51/242/246
f 15/243/247 53/244/248 16/245/249
f 53/246/250 15/247/251 24/248/252
f 54/249/253 24/250/254 21/251/255
f 24/252/256 54/253/257 53/254/258
f 21/255/259 55/256/260 54/257/261
f 55/258/262 21/259/263 23/260/264
f 22/261/265 20/262/266 56/263/267
f 20/264/268 22/265/269 19/266/270
f 22/267/271 55/268/272 23/269/273
f 55/270/274 22/271/275 56/272/276
f 53/273/277 12/274/278 16/275/279
f 12/276/280 53/277/281 56/278/282
f 56/279/283 53/280/284 55/281/285
f 55/282/286 53/283/287 54/284/288
f 13/285/289 10/286/290 18/287/291
f 10/288/292 13/289/293 20/290/294
f 20/291/295 13/292/296 12/293/297
f 20/294/298 12/295/299 56/296/300
f 2/297/301 5/298/302 3/299/303
f 5/300/304 2/301/305 8/302/306
f 8/303/307 2/304/308 18/305/309
f 8/306/310 18/307/311 10/308/312
